<?xml version="1.0" encoding="utf-8"?>
<!-- Generator: Adobe Illustrator 15.1.0, SVG Export Plug-In . SVG Version: 6.00 Build 0)  -->
<!DOCTYPE svg PUBLIC "-//W3C//DTD SVG 1.1//EN" "http://www.w3.org/Graphics/SVG/1.1/DTD/svg11.dtd">
<svg version="1.1" id="Layer_1" xmlns="http://www.w3.org/2000/svg" xmlns:xlink="http://www.w3.org/1999/xlink" x="0px" y="0px"
	 width="1000px" height="1000px" viewBox="0 0 1000 1000" enable-background="new 0 0 1000 1000" xml:space="preserve">
<g>
	<g>
		<linearGradient id="SVGID_1_" gradientUnits="userSpaceOnUse" x1="904.7461" y1="1071.5781" x2="460.7045" y2="444.5194">
			<stop  offset="0" style="stop-color:#1C75BC"/>
			<stop  offset="1" style="stop-color:#27AAE1"/>
		</linearGradient>
		<path fill="url(#SVGID_1_)" d="M1000,496.991v3.024C1000,776.152,776.129,1000,500,1000c-1.863,0-3.727,0-5.59-0.03
			C220.849,996.976,0,774.291,0,500.016C0,223.848,223.871,0,500,0C775.121,0,998.351,222.229,1000,496.991z"/>
		<linearGradient id="SVGID_2_" gradientUnits="userSpaceOnUse" x1="902.7158" y1="1010.0625" x2="572.5499" y2="543.8146">
			<stop  offset="0" style="stop-color:#1C75BC"/>
			<stop  offset="1" style="stop-color:#27AAE1"/>
		</linearGradient>
		<path opacity="0.4" fill="url(#SVGID_2_)" d="M1000,496.991v3.024C1000,776.152,776.129,1000,500,1000c-1.863,0-3.727,0-5.59-0.03
			L290.698,796.249l-0.184-276.442l118.349-59.161V266.087l179.311,213.679l2.963,1.496V206.927l118.35-0.917L1000,496.991z"/>
	</g>
	<g>
		<polygon fill="#CCCCCC" points="591.137,796.092 591.137,601.523 709.477,542.354 709.477,796.092 650.303,855.262 		"/>
		<path fill="#CCCCCC" d="M588.172,479.771h-176.34l-102.617,51.309l102.617,51.312h176.34l102.616-51.312L588.172,479.771z
			 M584.348,566.206H415.652l-70.259-35.127l70.259-35.127h168.695l70.262,35.127L584.348,566.206z"/>
		<polygon points="654.609,531.079 584.348,566.206 415.652,566.206 345.394,531.079 415.652,495.952 584.348,495.952 		"/>
		<polygon points="694.206,567.063 694.206,789.765 650.303,833.664 606.407,789.765 606.407,610.961 		"/>
		<polygon fill="#CCCCCC" points="290.522,266.09 349.692,206.921 408.863,266.09 408.863,460.634 290.522,519.813 		"/>
		<polygon points="393.593,272.417 393.593,451.196 305.794,495.102 305.794,272.417 349.692,228.518 		"/>
		<polygon fill="#CCCCCC" points="591.137,410.354 591.137,206.012 650.303,146.841 709.477,206.01 709.477,469.533 		"/>
		<polygon points="694.206,212.336 694.206,444.822 606.407,400.917 606.407,212.336 650.303,168.437 		"/>
		<polygon fill="#CCCCCC" points="290.522,796.092 290.522,542.354 408.863,601.523 408.863,796.092 349.692,855.262 		"/>
		<polygon points="393.593,610.961 393.593,789.765 349.692,833.664 305.794,789.765 305.794,567.063 		"/>
	</g>
</g>
</svg>
