<?xml version="1.0" encoding="utf-8"?>
<!-- Generator: Adobe Illustrator 15.1.0, SVG Export Plug-In . SVG Version: 6.00 Build 0)  -->
<!DOCTYPE svg PUBLIC "-//W3C//DTD SVG 1.1//EN" "http://www.w3.org/Graphics/SVG/1.1/DTD/svg11.dtd">
<svg version="1.1" id="Layer_1" xmlns="http://www.w3.org/2000/svg" xmlns:xlink="http://www.w3.org/1999/xlink" x="0px" y="0px"
	 width="572.012px" height="823.428px" viewBox="0 0 572.012 823.428" enable-background="new 0 0 572.012 823.428"
	 xml:space="preserve">
<g>
	<g>
		<path d="M4.581,740.879L0,736.292v-64.204c1.525-6.112,5.342-9.937,11.449-11.464l6.866,18.343v48.153L4.581,740.879z
			 M18.315,756.929v48.154l-6.866,18.345C5.342,821.903,1.525,818.08,0,811.964V747.76l4.581-4.589L18.315,756.929z M77.829,731.708
			l9.155,9.172l-9.155,9.173H18.315l-9.156-9.173l9.156-9.172H77.829z M77.829,724.829v-48.156l6.866-18.343
			c6.103,1.529,9.916,5.353,11.443,11.466V734l-4.578,4.585L77.829,724.829z M91.561,743.171l4.578,4.589v64.204
			c-1.527,6.115-5.341,9.938-11.443,11.464l-6.866-18.345v-48.154L91.561,743.171z"/>
		<path d="M123.605,738.584L119.023,734v-52.74l11.448-11.464l6.865,6.877v48.156L123.605,738.584z M137.337,756.929v48.154
			l-6.865,6.881l-11.448-11.468V747.76l4.582-4.589L137.337,756.929z M192.276,676.672h-50.358l-9.156-9.169l9.156-9.174h50.358
			l9.155,9.174L192.276,676.672z M201.432,814.256l-9.155,9.172h-50.358l-9.156-9.172l9.156-9.173h50.358L201.432,814.256z
			 M196.854,724.829v-48.156l6.866-6.877l11.445,11.464V734l-4.58,4.585L196.854,724.829z M210.585,743.171l4.58,4.589v52.736
			l-11.445,11.468l-6.866-6.881v-48.154L210.585,743.171z"/>
		<path d="M256.364,681.259v43.569l-13.734,13.756L238.053,734V674.38L256.364,681.259z M318.166,823.428h-68.668
			c-6.107-1.525-9.92-5.349-11.445-11.464l18.312-6.881H311.3L318.166,823.428z M256.593,676.672l-18.311-6.877
			c1.526-6.113,5.34-9.937,11.444-11.466h73.017c6.104,1.529,9.921,5.353,11.445,11.466l-18.311,6.877H256.593z M315.878,731.708
			l9.153,9.172l-9.153,9.173h-59.514l-9.156-9.173l9.156-9.172H315.878z M329.612,743.171l4.576,4.589v64.204
			c-1.524,6.115-5.342,9.938-11.445,11.464l-6.865-18.345v-48.154L329.612,743.171z"/>
		<path d="M375.389,676.672l-18.312-6.877c1.524-6.113,5.339-9.937,11.444-11.466h73.018c6.102,1.529,9.921,5.353,11.445,11.466
			l-18.31,6.877H375.389z M395.763,729.416v-48.156h18.312v48.156l-9.155,9.169L395.763,729.416z M404.919,743.171l9.155,9.174
			v59.619c-1.528,6.115-5.346,9.938-11.444,11.464l-6.867-18.345v-52.738L404.919,743.171z"/>
		<path d="M494.188,681.259v43.569l-13.735,13.756L475.875,734V674.38L494.188,681.259z M555.988,823.428H487.32
			c-6.107-1.525-9.921-5.349-11.445-11.464l18.313-6.881h54.934L555.988,823.428z M494.415,676.672l-18.31-6.877
			c1.525-6.113,5.338-9.937,11.443-11.466h73.02c6.102,1.529,9.919,5.353,11.443,11.466l-18.312,6.877H494.415z M553.7,731.708
			l9.158,9.172l-9.158,9.173h-59.512l-9.155-9.173l9.155-9.172H553.7z M567.434,743.171l4.578,4.589v64.204
			c-1.524,6.115-5.342,9.938-11.443,11.464l-6.868-18.345v-48.154L567.434,743.171z"/>
	</g>
	<g>
		<g>
			<linearGradient id="SVGID_1_" gradientUnits="userSpaceOnUse" x1="517.5254" y1="612.9556" x2="263.5283" y2="254.2705">
				<stop  offset="0" style="stop-color:#1C75BC"/>
				<stop  offset="1" style="stop-color:#27AAE1"/>
			</linearGradient>
			<path fill="url(#SVGID_1_)" d="M572.012,284.285v1.729c0,157.954-128.059,285.998-286.006,285.998c-1.066,0-2.135,0-3.197-0.016
				C126.328,570.282,0,442.904,0,286.014C0,128.045,128.057,0,286.006,0C443.379,0,571.068,127.118,572.012,284.285z"/>
			<linearGradient id="SVGID_2_" gradientUnits="userSpaceOnUse" x1="516.3633" y1="577.7686" x2="327.5042" y2="311.069">
				<stop  offset="0" style="stop-color:#1C75BC"/>
				<stop  offset="1" style="stop-color:#27AAE1"/>
			</linearGradient>
			<path opacity="0.4" fill="url(#SVGID_2_)" d="M572.012,284.285v1.729c0,157.954-128.059,285.998-286.006,285.998
				c-1.066,0-2.135,0-3.197-0.016L166.281,455.464l-0.105-158.128l67.697-33.84V152.206l102.568,122.226l1.693,0.857V118.367
				l67.697-0.526L572.012,284.285z"/>
		</g>
		<g>
			<polygon fill="#CCCCCC" points="338.135,455.374 338.135,344.078 405.828,310.233 405.828,455.374 371.979,489.22 			"/>
			<path fill="#CCCCCC" d="M336.441,274.435H235.574l-58.699,29.35l58.699,29.35h100.867l58.697-29.35L336.441,274.435z
				 M334.252,323.875H237.76l-40.191-20.09l40.191-20.094h96.492l40.195,20.094L334.252,323.875z"/>
			<polygon points="374.447,303.785 334.252,323.875 237.76,323.875 197.568,303.785 237.76,283.691 334.252,283.691 			"/>
			<polygon points="397.09,324.369 397.09,451.756 371.979,476.866 346.871,451.756 346.871,349.478 			"/>
			<polygon fill="#CCCCCC" points="166.182,152.207 200.027,118.364 233.873,152.207 233.873,263.488 166.182,297.34 			"/>
			<polygon points="225.139,155.824 225.139,258.089 174.918,283.203 174.918,155.824 200.027,130.714 			"/>
			<polygon fill="#CCCCCC" points="338.135,234.727 338.135,117.84 371.979,83.996 405.828,117.84 405.828,268.579 			"/>
			<polygon points="397.09,121.461 397.09,254.445 346.871,229.33 346.871,121.461 371.979,96.349 			"/>
			<polygon fill="#CCCCCC" points="166.182,455.374 166.182,310.233 233.873,344.078 233.873,455.374 200.027,489.22 			"/>
			<polygon points="225.139,349.478 225.139,451.756 200.027,476.866 174.918,451.756 174.918,324.369 			"/>
		</g>
	</g>
</g>
</svg>
