<?xml version="1.0" encoding="utf-8"?>
<!-- Generator: Adobe Illustrator 15.1.0, SVG Export Plug-In . SVG Version: 6.00 Build 0)  -->
<!DOCTYPE svg PUBLIC "-//W3C//DTD SVG 1.1//EN" "http://www.w3.org/Graphics/SVG/1.1/DTD/svg11.dtd">
<svg version="1.1" id="Layer_1" xmlns="http://www.w3.org/2000/svg" xmlns:xlink="http://www.w3.org/1999/xlink" x="0px" y="0px"
	 width="1000px" height="341.639px" viewBox="0 0 1000 341.639" enable-background="new 0 0 1000 341.639" xml:space="preserve">
<g>
	<g>
		<path d="M415.056,177.899l-4.721-4.719v-66.078c1.57-6.29,5.505-10.224,11.8-11.799l7.079,18.879v49.557L415.056,177.899z
			 M429.214,194.418v49.556l-7.079,18.88c-6.295-1.572-10.229-5.505-11.8-11.799v-66.075l4.721-4.722L429.214,194.418z
			 M490.57,168.459l9.438,9.44l-9.438,9.438h-61.356l-9.439-9.438l9.439-9.44H490.57z M490.57,161.381v-49.558l7.078-18.878
			c6.291,1.575,10.227,5.51,11.799,11.798v66.075l-4.719,4.72L490.57,161.381z M504.729,180.258l4.719,4.722v66.075
			c-1.572,6.294-5.508,10.227-11.799,11.799l-7.078-18.88v-49.556L504.729,180.258z"/>
		<path d="M537.765,175.538l-4.721-4.72v-54.276l11.8-11.799l7.079,7.08v49.558L537.765,175.538z M551.923,194.418v49.556
			l-7.079,7.081l-11.8-11.799v-54.276l4.721-4.722L551.923,194.418z M608.559,111.823h-51.917l-9.438-9.439l9.438-9.439h51.917
			l9.439,9.439L608.559,111.823z M617.998,253.412l-9.439,9.441h-51.917l-9.438-9.441l9.438-9.438h51.917L617.998,253.412z
			 M613.279,161.381v-49.558l7.078-7.08l11.799,11.799v54.276l-4.719,4.72L613.279,161.381z M627.438,180.258l4.719,4.722v54.276
			l-11.799,11.799l-7.078-7.081v-49.556L627.438,180.258z"/>
		<path d="M674.632,116.542v44.838l-14.158,14.157l-4.721-4.72v-61.354L674.632,116.542z M738.348,262.854h-70.797
			c-6.293-1.572-10.228-5.505-11.798-11.799l18.879-7.081h56.636L738.348,262.854z M674.868,111.823l-18.88-7.08
			c1.572-6.289,5.505-10.223,11.799-11.798h75.279c6.291,1.575,10.225,5.51,11.799,11.798l-18.877,7.08H674.868z M735.988,168.459
			l9.438,9.44l-9.438,9.438h-61.356l-9.439-9.438l9.439-9.44H735.988z M750.146,180.258l4.719,4.722v66.075
			c-1.574,6.294-5.508,10.227-11.799,11.799l-7.078-18.88v-49.556L750.146,180.258z"/>
		<path d="M797.339,111.823l-18.878-7.08c1.569-6.289,5.504-10.223,11.798-11.798h75.279c6.291,1.575,10.226,5.51,11.799,11.798
			l-18.879,7.08H797.339z M818.342,166.1v-49.557h18.877V166.1l-9.438,9.438L818.342,166.1z M827.781,180.258l9.438,9.44v61.356
			c-1.572,6.294-5.508,10.227-11.799,11.799l-7.078-18.88v-54.275L827.781,180.258z"/>
		<path d="M919.815,116.542v44.838l-14.158,14.157l-4.721-4.72v-61.354L919.815,116.542z M983.531,262.854h-70.795
			c-6.295-1.572-10.229-5.505-11.8-11.799l18.879-7.081h56.636L983.531,262.854z M920.052,111.823l-18.879-7.08
			c1.571-6.289,5.505-10.223,11.798-11.798h75.279c6.291,1.575,10.225,5.51,11.799,11.798l-18.877,7.08H920.052z M981.172,168.459
			l9.438,9.44l-9.438,9.438h-61.356l-9.438-9.438l9.438-9.44H981.172z M995.33,180.258l4.719,4.722v66.075
			c-1.574,6.294-5.508,10.227-11.799,11.799l-7.078-18.88v-49.556L995.33,180.258z"/>
	</g>
	<g>
		<g>
			<linearGradient id="SVGID_1_" gradientUnits="userSpaceOnUse" x1="309.0479" y1="366.0928" x2="157.3458" y2="151.8649">
				<stop  offset="0" style="stop-color:#1C75BC"/>
				<stop  offset="1" style="stop-color:#27AAE1"/>
			</linearGradient>
			<path fill="url(#SVGID_1_)" d="M341.59,169.792v1.033c0,94.34-76.484,170.814-170.819,170.814c-0.638,0-1.274,0-1.91-0.01
				C75.401,340.605-0.049,264.527-0.049,170.824C-0.049,76.476,76.434,0,170.771,0C264.763,0,341.026,75.922,341.59,169.792z"/>
			<linearGradient id="SVGID_2_" gradientUnits="userSpaceOnUse" x1="308.3535" y1="345.0771" x2="195.5558" y2="185.7885">
				<stop  offset="0" style="stop-color:#1C75BC"/>
				<stop  offset="1" style="stop-color:#27AAE1"/>
			</linearGradient>
			<path opacity="0.4" fill="url(#SVGID_2_)" d="M341.59,169.792v1.033c0,94.34-76.484,170.814-170.819,170.814
				c-0.638,0-1.274,0-1.91-0.01L99.264,272.03l-0.063-94.443l40.434-20.212V90.905l61.259,73.001l1.012,0.512V70.695l40.433-0.313
				L341.59,169.792z"/>
		</g>
		<g>
			<polygon fill="#CCCCCC" points="201.905,271.975 201.905,205.504 242.335,185.289 242.335,271.975 222.118,292.19 			"/>
			<path fill="#CCCCCC" d="M200.894,163.908h-60.244l-35.06,17.531l35.06,17.529h60.244l35.057-17.529L200.894,163.908z
				 M199.586,193.437h-57.632l-24.004-11.998l24.004-12.002h57.632l24.006,12.002L199.586,193.437z"/>
			<polygon points="223.592,181.438 199.586,193.437 141.954,193.437 117.95,181.438 141.954,169.437 199.586,169.437 			"/>
			<polygon points="237.117,193.731 237.117,269.814 222.118,284.813 207.123,269.814 207.123,208.729 			"/>
			<polygon fill="#CCCCCC" points="99.204,90.907 119.419,70.693 139.635,90.907 139.635,157.37 99.204,177.589 			"/>
			<polygon points="134.417,93.069 134.417,154.146 104.422,169.146 104.422,93.069 119.419,78.07 			"/>
			<polygon fill="#CCCCCC" points="201.905,140.192 201.905,70.382 222.118,50.167 242.335,70.382 242.335,160.411 			"/>
			<polygon points="237.117,72.542 237.117,151.969 207.123,136.969 207.123,72.542 222.118,57.545 			"/>
			<polygon fill="#CCCCCC" points="99.204,271.975 99.204,185.289 139.635,205.504 139.635,271.975 119.419,292.19 			"/>
			<polygon points="134.417,208.729 134.417,269.814 119.419,284.813 104.422,269.814 104.422,193.731 			"/>
		</g>
	</g>
</g>
</svg>
